<svg fill="#80bd01" xmlns="http://www.w3.org/2000/svg" id="Layer_1" height="512" viewBox="0 0 512.005 512.005" width="512"><path d="m507.005 90.429c-3.797-4.699-9.514-7.429-15.555-7.429h-370v-63c0-11.046-8.954-20-20-20h-81c-26.536 1.056-26.516 38.953 0 40h61v279.138c-62.238 22.238-47.884 113.567 19 114.862h4.138c-13.303 37.379 16.076 78.549 55.862 78 39.778.552 69.172-40.626 55.861-78h98.277c-13.304 37.378 16.077 78.55 55.862 78 78.267-3.238 78.252-114.769-.001-118h-270c-25.182-1.032-25.222-36.95 0-38h341c9.429 0 17.577-6.585 19.555-15.804l50-233c1.268-5.906-.202-12.069-3.999-16.767zm-327.555 362.571c0 10.477-8.523 19-19 19-25.206-1.044-25.199-36.96 0-38 10.476 0 19 8.523 19 19zm191 19c-10.477 0-19-8.523-19-19 1.044-25.206 36.96-25.199 38 0 0 10.477-8.524 19-19 19zm-73.58-156 13.253-193h55.875l-22.365 193zm-87.984 0 4.159-193h56.984l-13.253 193zm-87.436-193h51.586l-4.159 193h-47.427zm303.836 193h-41.385l22.365-193h60.437z"></path></svg>