<svg fill="#80bd01" xmlns="http://www.w3.org/2000/svg" id="Capa_1" height="512" viewBox="0 0 512 512" width="512"><g><path d="m151.05 226.05v-45.013l-30-.024v45.037z"></path><path d="m229.54 451h-154.44c-8.28 0-15-6.72-15-15s6.72-15 15-15h142.86c-2.68-9.67-4.5-19.7-5.37-30h-137.49c-8.28 0-15-6.72-15-15s6.72-15 15-15h137.67c1-10.3 2.94-20.33 5.76-30h-143.43c-8.28 0-15-6.72-15-15s6.72-15 15-15h155.47c8.81-16.9 20.46-32.1 34.31-44.95h-158.83c-8.138 0-15-6.559-15-15.05v-75c0-8.323 6.763-15 15-15 10.342.009 30.163.027 45 .04v-30.04c0-8.28 6.72-15 15-15h59.9c8.28 0 15 6.72 15 15v44.95h45c8.28 0 15 6.72 15 15v49.65c28.478-14.858 59.564-20.493 89.49-18.06-.18-104.36-.34-197.48-.34-197.54 0-8.28-6.72-15-15-15h-255v105c0 8.28-6.72 15-15 15h-105.1v377c0 8.28 6.72 15 15 15h267.23c-22.2-15.63-40.39-36.59-52.69-61z"></path><path d="m181.05 136h29.9v90.05h-29.9z"></path><path d="m90.1 8.688-81.313 81.312h81.313z"></path><path d="m240.95 195.95h30v30.1h-30z"></path><path d="m450.1 229.106v-182.806c0-8.284-6.716-15-15-15h-15v.029c0 .917.006 15.111.08 186.416 10.416 2.826 20.425 6.649 29.92 11.361z"></path><path d="m377 242c-74.439 0-135 60.561-135 135s60.561 135 135 135 135-60.561 135-135-60.561-135-135-135zm14.409 192.769v1.426c0 8.284-6.716 15-15 15s-15-6.716-15-15v-.254c-6.719-1.601-12.954-4.248-17.896-7.482-6.933-4.536-8.876-13.832-4.341-20.765 4.536-6.934 13.832-8.876 20.765-4.341 6.139 4.017 16.26 5.542 21.233 3.202 3.223-1.517 5.717-4.754 6.064-7.872.743-6.642-9.664-10.347-15.876-12.801-9.402-3.713-21.104-8.335-27.897-20.599-9.674-17.464-1.217-40.519 17.948-48.408v-.755c0-8.284 6.716-15 15-15 8.202 0 14.856 6.586 14.988 14.757 5.399 1.687 10.373 4.387 14.355 8.06 6.09 5.617 6.473 15.106.856 21.196-5.617 6.091-15.107 6.472-21.196.856-2.467-2.277-10.072-3.195-13.377-.976-2.222 1.494-3.093 4.357-2.332 5.731 3.171 5.724 19.788 7.702 32.313 17.463 25.654 19.991 16.774 56.059-10.607 66.562z"></path></g></svg>