<svg fill="#80bd01" xmlns="http://www.w3.org/2000/svg" id="Layer_1" height="512" viewBox="0 0 512 512" width="512" data-name="Layer 1"><path d="m400.891 309.606h16.168v81.936h-16.168z"></path><path d="m400.891 248.475h16.168v22.356h-16.168z"></path><path d="m442.85 309.606h16.168v81.936h-16.168z"></path><path d="m358.931 309.606h16.168v81.936h-16.168z"></path><path d="m482.66 415v-196.671h-146.419v196.671zm-48.81-171.025a4.5 4.5 0 0 1 4.5-4.5h25.168a4.5 4.5 0 0 1 4.5 4.5v31.356a4.5 4.5 0 0 1 -4.5 4.5h-25.168a4.5 4.5 0 0 1 -4.5-4.5zm0 61.131a4.5 4.5 0 0 1 4.5-4.5h25.168a4.5 4.5 0 0 1 4.5 4.5v90.936a4.5 4.5 0 0 1 -4.5 4.5h-25.168a4.5 4.5 0 0 1 -4.5-4.5zm-41.959-61.131a4.5 4.5 0 0 1 4.5-4.5h25.168a4.5 4.5 0 0 1 4.5 4.5v31.356a4.5 4.5 0 0 1 -4.5 4.5h-25.168a4.5 4.5 0 0 1 -4.5-4.5zm0 61.131a4.5 4.5 0 0 1 4.5-4.5h25.168a4.5 4.5 0 0 1 4.5 4.5v90.936a4.5 4.5 0 0 1 -4.5 4.5h-25.168a4.5 4.5 0 0 1 -4.5-4.5zm-41.96-61.131a4.5 4.5 0 0 1 4.5-4.5h25.169a4.5 4.5 0 0 1 4.5 4.5v31.356a4.5 4.5 0 0 1 -4.5 4.5h-25.169a4.5 4.5 0 0 1 -4.5-4.5zm0 61.131a4.5 4.5 0 0 1 4.5-4.5h25.169a4.5 4.5 0 0 1 4.5 4.5v90.936a4.5 4.5 0 0 1 -4.5 4.5h-25.169a4.5 4.5 0 0 1 -4.5-4.5z"></path><path d="m178.276 218.329h148.965v29.911h-148.965z"></path><path d="m358.931 248.475h16.168v22.356h-16.168z"></path><path d="m442.85 248.475h16.168v22.356h-16.168z"></path><path d="m303.9 105.661a4.5 4.5 0 0 0 4.528-4.5v-28.282a4.5 4.5 0 0 0 -4.5-4.5h-48.09a4.5 4.5 0 0 0 -4.5 4.5v47.815l-115.414 71.606h241.006l-116.589-71.646v-15.268zm31.219 70.5a4.5 4.5 0 0 1 -2.336 8.346h-150.121a4.5 4.5 0 0 1 -2.381-8.319l74.075-46.188a4.5 4.5 0 0 1 4.716-.028z"></path><path d="m396.001 192.3v-51.94h-86.403l84.522 51.94z"></path><path d="m198.385 175.508h118.322l-59.939-36.402z"></path><path d="m405.001 158.583h16.58v33.717h-16.58z"></path><path d="m462.11 179.942h9.743v12.358h-9.743z"></path><path d="m47.453 179.942h9.743v12.358h-9.743z"></path><path d="m310.951 257.24h16.29v157.76h-16.29z"></path><path d="m22.374 201.3h468.15v8.028h-468.15z"></path><path d="m119.587 140.36v51.484l82.985-51.484z"></path><path d="m94.373 158.583h16.215v33.717h-16.215z"></path><path d="m50.9 248.475h16.168v22.356h-16.168z"></path><path d="m92.859 309.606h16.168v81.936h-16.168z"></path><path d="m92.859 248.475h16.168v22.356h-16.168z"></path><path d="m169.276 415v-196.671h-137.488v196.671zm-43.457-171.025a4.5 4.5 0 0 1 4.5-4.5h25.168a4.5 4.5 0 0 1 4.5 4.5v31.356a4.5 4.5 0 0 1 -4.5 4.5h-25.168a4.5 4.5 0 0 1 -4.5-4.5zm0 61.131a4.5 4.5 0 0 1 4.5-4.5h25.168a4.5 4.5 0 0 1 4.5 4.5v90.936a4.5 4.5 0 0 1 -4.5 4.5h-25.168a4.5 4.5 0 0 1 -4.5-4.5zm-41.96-61.131a4.5 4.5 0 0 1 4.5-4.5h25.168a4.5 4.5 0 0 1 4.5 4.5v31.356a4.5 4.5 0 0 1 -4.5 4.5h-25.168a4.5 4.5 0 0 1 -4.5-4.5zm0 61.131a4.5 4.5 0 0 1 4.5-4.5h25.168a4.5 4.5 0 0 1 4.5 4.5v90.936a4.5 4.5 0 0 1 -4.5 4.5h-25.168a4.5 4.5 0 0 1 -4.5-4.5zm-41.959-61.131a4.5 4.5 0 0 1 4.5-4.5h25.168a4.5 4.5 0 0 1 4.5 4.5v31.356a4.5 4.5 0 0 1 -4.5 4.5h-25.168a4.5 4.5 0 0 1 -4.5-4.5zm0 61.131a4.5 4.5 0 0 1 4.5-4.5h25.168a4.5 4.5 0 0 1 4.5 4.5v90.936a4.5 4.5 0 0 1 -4.5 4.5h-25.168a4.5 4.5 0 0 1 -4.5-4.5z"></path><path d="m20.5 424h471v19.622h-471z"></path><path d="m268.498 257.24h33.453v157.76h-33.453z"></path><path d="m134.819 309.606h16.168v81.936h-16.168z"></path><path d="m50.9 309.606h16.168v81.936h-16.168z"></path><path d="m178.276 257.24h15.074v157.76h-15.074z"></path><path d="m202.35 257.24h33.453v157.76h-33.453z"></path><path d="m244.803 257.24h14.695v157.76h-14.695z"></path><path d="m134.819 248.475h16.168v22.356h-16.168z"></path></svg>