<svg fill="#80bd01" xmlns="http://www.w3.org/2000/svg" id="Capa_1" height="512" viewBox="0 0 512 512" width="512"><g><path d="m361 90v-90h-210v90h-121v422h452v-422zm-301 392v-362h91v362zm271 0h-150v-452h150zm121 0h-91v-362h91z"></path><path d="m241 150h30v-30h30v-30h-30v-30h-30v30h-30v30h30z"></path><path d="m211 180h30v30h-30z"></path><path d="m271 180h30v30h-30z"></path><path d="m211 240h30v30h-30z"></path><path d="m271 240h30v30h-30z"></path><path d="m211 300h30v30h-30z"></path><path d="m271 300h30v30h-30z"></path><path d="m211 360h30v30h-30z"></path><path d="m271 360h30v30h-30z"></path><path d="m211 420h30v30h-30z"></path><path d="m91 180h30v30h-30z"></path><path d="m91 240h30v30h-30z"></path><path d="m91 300h30v30h-30z"></path><path d="m91 360h30v30h-30z"></path><path d="m91 420h30v30h-30z"></path><path d="m271 420h30v30h-30z"></path><path d="m391 180h30v30h-30z"></path><path d="m391 240h30v30h-30z"></path><path d="m391 300h30v30h-30z"></path><path d="m391 360h30v30h-30z"></path><path d="m391 420h30v30h-30z"></path></g></svg>